<svg width="399" height="86" viewBox="0 0 399 86" fill="none" xmlns="http://www.w3.org/2000/svg">
<path d="M0.555487 84V32.3636H36.5597V42.4993H13.036V53.0888H34.7192V63.2496H13.036V73.8643H36.5597V84H0.555487ZM44.3758 84V32.3636H56.8563V73.8643H78.3378V84H44.3758ZM172.548 84L157.521 32.3636H171.313L179.104 66.1996H179.532L188.433 32.3636H199.678L208.578 66.2752H209.006L216.823 32.3636H230.589L215.587 84H203.56L194.257 52.6854H193.853L184.55 84H172.548ZM241.298 84H227.885L245.307 32.3636H261.922L279.345 84H265.931L253.804 45.3736H253.4L241.298 84ZM239.508 63.6783H267.545V73.1584H239.508V63.6783ZM284.904 32.3636H300.36L313.471 64.3338H314.076L327.186 32.3636H342.642V84H330.489V52.282H330.061L317.656 83.6722H309.89L297.485 52.1055H297.057V84H284.904V32.3636ZM347.855 32.3636H361.798L372.715 53.9712H373.169L384.086 32.3636H398.029L379.144 66.7543V84H366.739V66.7543L347.855 32.3636Z" fill="white"/>
<path d="M118.21 85.1236C111.95 85.1236 106.399 84.0535 101.556 81.9134C96.7411 79.7464 92.9424 76.7636 90.1602 72.9648C87.378 69.1661 85.9601 64.7921 85.9066 59.843H105.89C105.971 61.6354 106.546 63.2272 107.616 64.6183C108.686 65.9826 110.144 67.0527 111.99 67.8285C113.836 68.6043 115.936 68.9922 118.29 68.9922C120.644 68.9922 122.717 68.5775 124.51 67.7482C126.329 66.8922 127.747 65.7285 128.763 64.2571C129.78 62.759 130.275 61.0469 130.248 59.1207C130.275 57.1946 129.726 55.4825 128.603 53.9844C127.479 52.4863 125.887 51.3226 123.827 50.4933C121.794 49.6639 119.387 49.2493 116.604 49.2493H108.619V35.1243H116.604C119.039 35.1243 121.179 34.723 123.025 33.9205C124.897 33.1179 126.355 31.9943 127.399 30.5497C128.442 29.0784 128.95 27.393 128.924 25.4936C128.95 23.6477 128.509 22.0292 127.599 20.6381C126.717 19.2203 125.473 18.1235 123.868 17.3477C122.289 16.5719 120.457 16.1839 118.37 16.1839C116.176 16.1839 114.183 16.5719 112.391 17.3477C110.625 18.1235 109.221 19.2203 108.178 20.6381C107.134 22.056 106.586 23.7012 106.532 25.5739H87.5518C87.6054 20.6783 88.9697 16.3712 91.6449 12.6527C94.3201 8.90743 97.9583 5.9781 102.56 3.8647C107.188 1.7513 112.458 0.694599 118.37 0.694599C124.255 0.694599 129.432 1.72455 133.9 3.78444C138.367 5.84434 141.845 8.65329 144.333 12.2113C146.821 15.7425 148.065 19.7419 148.065 24.2095C148.091 28.8376 146.58 32.6497 143.53 35.646C140.507 38.6422 136.615 40.488 131.853 41.1836V41.8256C138.22 42.5747 143.022 44.6346 146.259 48.0053C149.523 51.3761 151.141 55.5895 151.114 60.6456C151.114 65.4074 149.71 69.6342 146.901 73.326C144.119 76.991 140.24 79.8802 135.264 81.9936C130.315 84.0803 124.63 85.1236 118.21 85.1236Z" fill="#4B0082" fill-opacity="0.6"/>
</svg>
